<svg version="1.2" xmlns="http://www.w3.org/2000/svg" viewBox="0 0 1307 40" width="1307" height="40">
	<title>image</title>
	<style>
		.s0 { fill: none;stroke: #399f3d;stroke-width: 8 } 
		.s1 { fill: none;stroke: #f9df4b;stroke-width: 8 } 
		.s2 { fill: none;stroke: #092971;stroke-width: 8 } 
		.s3 { fill: none;stroke: #b66d55;stroke-width: 8 } 
	</style>
	<path id="Layer" class="s0" d="m120.6 37l-28.4-34.5"/>
	<path id="Layer" class="s1" d="m31.5 3.3l-28.4 33.5"/>
	<path id="Layer" class="s2" d="m289.6 37l-28.4-34.5"/>
	<path id="Layer" class="s3" d="m200.5 3.3l-28.4 33.5"/>
	<path id="Layer" class="s0" d="m458.6 37l-28.4-34.5"/>
	<path id="Layer" class="s1" d="m369.5 3.3l-28.4 33.5"/>
	<path id="Layer" class="s2" d="m627.6 37l-28.4-34.5"/>
	<path id="Layer" class="s3" d="m538.5 3.3l-28.4 33.5"/>
	<path id="Layer" class="s0" d="m796.6 37l-28.4-34.5"/>
	<path id="Layer" class="s1" d="m707.5 3.3l-28.4 33.5"/>
	<path id="Layer" class="s2" d="m965.6 37l-28.4-34.5"/>
	<path id="Layer" class="s3" d="m876.5 3.3l-28.4 33.5"/>
	<path id="Layer" class="s0" d="m1134.6 37l-28.4-34.5"/>
	<path id="Layer" class="s1" d="m1045.5 3.3l-28.5 33.5"/>
	<path id="Layer" class="s2" d="m1303.6 37l-28.4-34.5"/>
	<path id="Layer" class="s3" d="m1214.5 3.3l-28.5 33.5"/>
</svg>